# xmcd
#
# Track frame offsets:
#	150
#	18240
#	36627
#	57820
#	72690
#	92690
#	110335
#	130662
#	150212
#	168685
#	183127
#	203895
#	222015
#	240555
#	261502
#	279130
#	297395
#	315460
#
# Disc length: 4645
#
# Revision: 2
# Processed by: cddbd v1.5.1PL0 Copyright (c) Steve Scherf et al.
# Submitted via: CDex 1.40PlusFr
# Normalized: r1:DSETVAR1,TDELIM( - )
#
DISCID=00122312
DTITLE=Various Artist - Cool Groove 2
DYEAR=1995
DGENRE=R&B
TTITLE0=RAPPIN' 4-TAY and THE SPINNERS - I'll be around
TTITLE1=COOLIO - Fantastic voyage
TTITLE2=ARRESTED DEVELOPMENT - Tennessee
TTITLE3=NOSE and MENELIK - Quelle aventure
TTITLE4=TCL - Creep
TTITLE5=INDIAN VIBES - Indian vibes
TTITLE6=C&C MUSIC FACTORY - Do you want to get funky
TTITLE7=BRANDY - Baby
TTITLE8=HEAVY D and THE BOYZ - Sex wit you
TTITLE9=SHAGGY - Oh Carolina
TTITLE10=ALLIANCE ETHNIK - Respect
TTITLE11=STEREO MC'S - Connected
TTITLE12=JULIET ROBERTS - Caught in the middle
TTITLE13=PORTRAIT - I can call you
TTITLE14=SOON E MC - Rap jazz soul
TTITLE15=D'ANGELO - Brown Sugar
TTITLE16=EARTHLING - Nefisa
TTITLE17=CUNNIE WILLIAMS - What is black music ?
EXTD=YEAR: 1995 ID3G: 14
EXTT0=
EXTT1=
EXTT2=
EXTT3=
EXTT4=
EXTT5=
EXTT6=
EXTT7=
EXTT8=
EXTT9=
EXTT10=
EXTT11=
EXTT12=
EXTT13=
EXTT14=
EXTT15=
EXTT16=
EXTT17=
PLAYORDER=
